<mxfile host="" modified="2020-06-14T02:15:51.814Z" agent="5.0 (Macintosh; Intel Mac OS X 10_15_5) AppleWebKit/537.36 (KHTML, like Gecko) Code/1.46.0 Chrome/78.0.3904.130 Electron/7.3.1 Safari/537.36" etag="nEDn5EBdrawljLN6BTyr" version="13.1.3">
    <diagram id="6hGFLwfOUW9BJ-s0fimq" name="Page-1">
        <mxGraphModel dx="807" dy="635" grid="1" gridSize="10" guides="1" tooltips="1" connect="1" arrows="1" fold="1" page="1" pageScale="1" pageWidth="827" pageHeight="1169" math="0" shadow="0">
            <root>
                <mxCell id="0"/>
                <mxCell id="1" parent="0"/>
                <mxCell id="29" value="" style="group" vertex="1" connectable="0" parent="1">
                    <mxGeometry x="40" y="280" width="190" height="249" as="geometry"/>
                </mxCell>
                <mxCell id="6" value="" style="group" vertex="1" connectable="0" parent="29">
                    <mxGeometry width="190" height="120" as="geometry"/>
                </mxCell>
                <mxCell id="3" value="" style="rounded=0;whiteSpace=wrap;html=1;fillColor=none;" vertex="1" parent="6">
                    <mxGeometry width="190" height="120" as="geometry"/>
                </mxCell>
                <mxCell id="2" value="Presentation Layer" style="rounded=1;whiteSpace=wrap;html=1;fillColor=none;" vertex="1" parent="6">
                    <mxGeometry x="10" y="9" width="170" height="30" as="geometry"/>
                </mxCell>
                <mxCell id="4" value="Business Layer" style="rounded=1;whiteSpace=wrap;html=1;fillColor=none;" vertex="1" parent="6">
                    <mxGeometry x="10" y="45" width="170" height="30" as="geometry"/>
                </mxCell>
                <mxCell id="5" value="Persistence Layer" style="rounded=1;whiteSpace=wrap;html=1;fillColor=none;" vertex="1" parent="6">
                    <mxGeometry x="10" y="82" width="170" height="30" as="geometry"/>
                </mxCell>
                <mxCell id="12" value="" style="group" vertex="1" connectable="0" parent="29">
                    <mxGeometry y="200" width="190" height="49" as="geometry"/>
                </mxCell>
                <mxCell id="8" value="" style="rounded=0;whiteSpace=wrap;html=1;fillColor=none;" vertex="1" parent="12">
                    <mxGeometry width="190" height="49" as="geometry"/>
                </mxCell>
                <mxCell id="9" value="Database Layer" style="rounded=1;whiteSpace=wrap;html=1;fillColor=none;" vertex="1" parent="12">
                    <mxGeometry x="10" y="9" width="170" height="30" as="geometry"/>
                </mxCell>
                <mxCell id="13" value="" style="shape=singleArrow;direction=south;whiteSpace=wrap;html=1;fillColor=none;arrowWidth=0.3333333333333333;arrowSize=0.5;" vertex="1" parent="29">
                    <mxGeometry x="67.5" y="133" width="55" height="55" as="geometry"/>
                </mxCell>
                <mxCell id="30" value="" style="group" vertex="1" connectable="0" parent="1">
                    <mxGeometry x="319" y="236" width="190" height="349" as="geometry"/>
                </mxCell>
                <mxCell id="19" value="" style="group" vertex="1" connectable="0" parent="30">
                    <mxGeometry width="190" height="49" as="geometry"/>
                </mxCell>
                <mxCell id="20" value="" style="rounded=0;whiteSpace=wrap;html=1;fillColor=none;" vertex="1" parent="19">
                    <mxGeometry width="190" height="49" as="geometry"/>
                </mxCell>
                <mxCell id="21" value="Presentation Layer" style="rounded=1;whiteSpace=wrap;html=1;fillColor=none;" vertex="1" parent="19">
                    <mxGeometry x="10" y="9" width="170" height="30" as="geometry"/>
                </mxCell>
                <mxCell id="23" value="" style="group" vertex="1" connectable="0" parent="30">
                    <mxGeometry y="130" width="190" height="90" as="geometry"/>
                </mxCell>
                <mxCell id="15" value="" style="rounded=0;whiteSpace=wrap;html=1;fillColor=none;" vertex="1" parent="23">
                    <mxGeometry width="190" height="90" as="geometry"/>
                </mxCell>
                <mxCell id="16" value="Business Layer" style="rounded=1;whiteSpace=wrap;html=1;fillColor=none;" vertex="1" parent="23">
                    <mxGeometry x="10" y="11" width="170" height="30" as="geometry"/>
                </mxCell>
                <mxCell id="17" value="Persistence Layer" style="rounded=1;whiteSpace=wrap;html=1;fillColor=none;" vertex="1" parent="23">
                    <mxGeometry x="10" y="47" width="170" height="30" as="geometry"/>
                </mxCell>
                <mxCell id="24" value="" style="group" vertex="1" connectable="0" parent="30">
                    <mxGeometry y="300" width="190" height="49" as="geometry"/>
                </mxCell>
                <mxCell id="25" value="" style="rounded=0;whiteSpace=wrap;html=1;fillColor=none;" vertex="1" parent="24">
                    <mxGeometry width="190" height="49" as="geometry"/>
                </mxCell>
                <mxCell id="26" value="Database Layer" style="rounded=1;whiteSpace=wrap;html=1;fillColor=none;" vertex="1" parent="24">
                    <mxGeometry x="10" y="9" width="170" height="30" as="geometry"/>
                </mxCell>
                <mxCell id="27" value="" style="shape=singleArrow;direction=south;whiteSpace=wrap;html=1;fillColor=none;arrowWidth=0.3333333333333333;arrowSize=0.5;" vertex="1" parent="30">
                    <mxGeometry x="67" y="62" width="55" height="55" as="geometry"/>
                </mxCell>
                <mxCell id="28" value="" style="shape=singleArrow;direction=south;whiteSpace=wrap;html=1;fillColor=none;arrowWidth=0.3333333333333333;arrowSize=0.5;" vertex="1" parent="30">
                    <mxGeometry x="67" y="233" width="55" height="55" as="geometry"/>
                </mxCell>
                <mxCell id="41" value="" style="group" vertex="1" connectable="0" parent="1">
                    <mxGeometry x="600" y="320" width="190" height="160" as="geometry"/>
                </mxCell>
                <mxCell id="33" value="" style="rounded=0;whiteSpace=wrap;html=1;fillColor=none;" vertex="1" parent="41">
                    <mxGeometry width="190" height="160" as="geometry"/>
                </mxCell>
                <mxCell id="34" value="Presentation Layer" style="rounded=1;whiteSpace=wrap;html=1;fillColor=none;" vertex="1" parent="41">
                    <mxGeometry x="10" y="9" width="170" height="30" as="geometry"/>
                </mxCell>
                <mxCell id="35" value="Business Layer" style="rounded=1;whiteSpace=wrap;html=1;fillColor=none;" vertex="1" parent="41">
                    <mxGeometry x="10" y="45" width="170" height="30" as="geometry"/>
                </mxCell>
                <mxCell id="36" value="Persistence Layer" style="rounded=1;whiteSpace=wrap;html=1;fillColor=none;" vertex="1" parent="41">
                    <mxGeometry x="10" y="82" width="170" height="30" as="geometry"/>
                </mxCell>
                <mxCell id="39" value="Database Layer" style="rounded=1;whiteSpace=wrap;html=1;fillColor=none;" vertex="1" parent="41">
                    <mxGeometry x="10" y="120" width="170" height="30" as="geometry"/>
                </mxCell>
            </root>
        </mxGraphModel>
    </diagram>
</mxfile>